<?xml version="1.0" encoding="UTF-8"?>
<svg width="282px" height="65px" viewBox="0 0 282 65" version="1.1" xmlns="http://www.w3.org/2000/svg" xmlns:xlink="http://www.w3.org/1999/xlink">
    <title>编组备份@1x</title>
    <g id="页面-1" stroke="none" stroke-width="1" fill="none" fill-rule="evenodd">
        <g id="icon" transform="translate(-843, -327)">
            <g id="编组-124" transform="translate(843, 327)">
                <g id="编组备份" transform="translate(0.8445, 0.125)">
                    <path d="M18.193,0 C8.161125,0 0,8.162 0,18.193875 L0,46.557 C0,56.588875 8.161125,64.75 18.193,64.75 L46.556125,64.75 C56.588,64.75 64.75,56.588875 64.75,46.557 L64.75,18.193875 C64.75,8.162 56.588,0 46.556125,0 L18.193,0 Z" id="Fill-2" fill="#000000"></path>
                    <polygon id="Fill-4" fill="#000000" points="120.12595 49.49525 122.88045 49.49525 122.88045 19.926375 120.12595 19.926375"></polygon>
                    <path d="M131.725038,39.3784125 L143.436913,39.3784125 C142.812163,36.7227875 140.424288,34.7409125 137.580538,34.7409125 C134.737663,34.7409125 132.348913,36.7227875 131.725038,39.3784125 M128.919788,39.3784125 C129.582163,35.1950375 133.214288,31.9864125 137.580538,31.9864125 C142.416663,31.9864125 146.350662,35.9204125 146.350662,40.7556625 L146.350662,42.1329125 L131.725038,42.1329125 C132.348913,44.7876625 134.737663,46.7704125 137.580538,46.7704125 C139.706788,46.7704125 141.633538,45.6827875 142.734288,43.8601625 L145.091538,45.2837875 C143.487662,47.9394125 140.679788,49.5249125 137.580538,49.5249125 C133.214288,49.5249125 129.582163,46.3162875 128.919788,42.1329125 C128.649413,40.9604125 128.919788,39.3784125 128.919788,39.3784125" id="Fill-6" fill="#000000"></path>
                    <polygon id="Fill-7" fill="#000000" points="151.6347 49.49525 154.3892 49.49525 154.3892 32.02325 151.6347 32.02325"></polygon>
                    <path d="M165.798763,49.4956 L163.044263,49.4956 L163.046013,38.57735 C163.046888,38.56685 163.109013,36.707475 161.961013,35.51135 C161.259263,34.77985 160.192638,34.409725 158.791763,34.409725 C157.186138,34.409725 155.998763,34.794725 155.262013,35.5551 C154.389638,36.45635 154.387888,37.655975 154.388763,37.66735 L151.635138,37.755725 C151.628138,37.51685 151.608888,35.368725 153.283638,33.63885 C154.558513,32.32285 156.411763,31.655225 158.791763,31.655225 C160.987138,31.655225 162.730138,32.31935 163.973513,33.6301 C165.820638,35.5796 165.811888,38.2676 165.798763,38.67535 L165.798763,49.4956 Z" id="Fill-8" fill="#000000"></path>
                    <polygon id="Fill-9" fill="#000000" points="239.494063 49.4956 236.739563 49.4956 236.739563 31.62285 245.262938 31.62285 245.262938 34.376475 239.494063 34.376475"></polygon>
                    <polygon id="Fill-10" fill="#000000" points="253.728213 49.4956 250.973713 49.4956 250.973713 31.62285 259.497088 31.62285 259.497088 34.376475 253.728213 34.376475"></polygon>
                    <polygon id="Fill-11" fill="#000000" points="170.1567 33.401375 183.7192 33.401375 183.7192 30.646875 170.1567 30.646875"></polygon>
                    <path d="M183.696975,49.796775 C180.12435,49.796775 177.46435,47.97415 176.005725,44.524025 C174.974975,42.08715 174.932975,39.674775 174.9321,39.573275 L174.9321,39.554025 L174.953975,19.92515 L177.708475,19.92865 L177.6866,39.5444 C177.689225,39.6599 177.752225,41.622525 178.569475,43.514275 C179.594975,45.88815 181.27235,47.042275 183.696975,47.042275 L183.696975,49.796775 Z" id="Fill-12" fill="#000000"></path>
                    <polygon id="Fill-13" fill="#000000" points="192.218075 49.49525 194.972575 49.49525 194.972575 19.926375 192.218075 19.926375"></polygon>
                    <path d="M200.854762,34.6992625 C197.611137,34.6992625 194.972137,37.3382625 194.972137,40.5818875 C194.972137,43.8255125 197.611137,46.4645125 200.854762,46.4645125 C204.098387,46.4645125 206.737387,43.8255125 206.737387,40.5818875 C206.737387,37.3382625 204.098387,34.6992625 200.854762,34.6992625 M200.854762,49.2190125 C196.093012,49.2190125 192.217637,45.3445125 192.217637,40.5818875 C192.217637,35.8192625 196.093012,31.9456375 200.854762,31.9456375 C205.617387,31.9456375 209.491887,35.8192625 209.491887,40.5818875 C209.491887,45.3445125 205.617387,49.2190125 200.854762,49.2190125" id="Fill-14" fill="#000000"></path>
                    <polygon id="Fill-15" fill="#000000" points="266.8827 31.5679 263.8342 31.5679 271.4362 47.597025 273.925575 46.41665"></polygon>
                    <polygon id="Fill-16" fill="#000000" points="271.016287 56.0923125 280.905537 31.5678125 277.935788 31.5678125 268.045662 56.0923125"></polygon>
                    <polygon id="Fill-17" fill="#000000" points="108.9312 49.49525 111.6857 49.49525 111.6857 29.927625 108.9312 29.927625"></polygon>
                    <path d="M112.0329,22.7756375 C112.0329,23.7285125 111.260275,24.5002625 110.308275,24.5002625 C109.3554,24.5002625 108.58365,23.7285125 108.58365,22.7756375 C108.58365,21.8236375 109.3554,21.0510125 110.308275,21.0510125 C111.260275,21.0510125 112.0329,21.8236375 112.0329,22.7756375" id="Fill-18" fill="#000000"></path>
                    <path d="M217.051275,39.6522875 L228.76315,39.6522875 C228.1384,36.9975375 225.750525,35.0147875 222.906775,35.0147875 C220.0639,35.0147875 217.676025,36.9975375 217.051275,39.6522875 M214.246025,39.6522875 C214.9084,35.4689125 218.540525,32.2602875 222.906775,32.2602875 C227.7429,32.2602875 231.6769,36.1942875 231.6769,41.0295375 L231.6769,42.4067875 L217.051275,42.4067875 C217.676025,45.0624125 220.0639,47.0442875 222.906775,47.0442875 C225.033025,47.0442875 226.959775,45.9566625 228.060525,44.1340375 L230.417775,45.5576625 C228.8139,48.2132875 226.006025,49.7987875 222.906775,49.7987875 C218.540525,49.7987875 214.9084,46.5901625 214.246025,42.4067875 C213.97565,41.2342875 214.246025,39.6522875 214.246025,39.6522875" id="Fill-19" fill="#000000"></path>
                    <path d="M91.13965,49.585725 C85.83365,49.585725 81.5164,45.355975 81.5164,40.15585 L84.3024,40.15585 C84.3024,43.868475 87.369275,46.8881 91.13965,46.8881 C94.910025,46.8881 97.977775,43.868475 97.977775,40.15585 C97.977775,38.991225 97.53415,35.07385 91.8204,33.545225 C88.4219,32.6361 82.731775,31.11535 82.73265,25.185475 C82.73265,20.644225 86.5039,16.9491 91.13965,16.9491 C95.7754,16.9491 99.547525,20.644225 99.547525,25.18635 L96.7624,25.18635 C96.7624,22.131725 94.239775,19.646725 91.13965,19.646725 C88.039525,19.646725 85.517775,22.131725 85.517775,25.185475 C85.5169,28.776475 88.569775,29.8781 92.561525,30.9456 C97.620775,32.29835 100.7629,35.827225 100.7629,40.15585 C100.7629,45.355975 96.44565,49.585725 91.13965,49.585725" id="Fill-20" fill="#000000"></path>
                    <path d="M35.9510375,47.9618125 C36.0551625,47.5383125 35.7952875,47.1113125 35.3717875,47.0071875 C32.5586625,46.3176875 30.0920375,44.4714375 28.9361625,42.1885625 C28.7384125,41.8000625 28.2641625,41.6443125 27.8756625,41.8411875 C27.4862875,42.0380625 27.3305375,42.5131875 27.5274125,42.9016875 C28.8862875,45.5844375 31.7475375,47.7448125 34.9964125,48.5401875 C35.0594125,48.5559375 35.1232875,48.5629375 35.1854125,48.5629375 C35.5397875,48.5629375 35.8626625,48.3223125 35.9510375,47.9618125 M32.0546625,18.2118125 C33.3251625,16.2071875 33.2954125,13.7484375 32.1885375,11.8260625 C30.5802875,12.1366875 29.0980375,13.0860625 28.1521625,14.5796875 C26.8816625,16.5860625 26.9114125,19.0448125 28.0182875,20.9671875 C29.6265375,20.6565625 31.1087875,19.7063125 32.0546625,18.2118125 M36.8592875,52.0550625 C29.4559125,52.0550625 23.1139125,46.3981875 22.4104125,38.8819375 C22.1872875,36.4949375 22.7175375,34.1499375 23.3230375,31.9711875 C23.5190375,31.2659375 23.6380375,30.6184375 23.6896625,29.9936875 C23.8034125,28.6951875 23.6415375,27.4771875 23.1944125,26.2661875 C22.3456625,23.9544375 20.6481625,22.1125625 18.4142875,21.0791875 C16.1804125,20.0458125 13.6779125,19.9443125 11.3687875,20.7939375 C11.0966625,20.8936875 10.8315375,21.0065625 10.5760375,21.1281875 C10.5795375,22.1921875 10.7702875,23.2439375 11.1456625,24.2633125 C12.5517875,28.0896875 16.3081625,30.5134375 20.2972875,30.2894375 C20.0671625,28.8299375 19.0259125,25.9039375 14.4636625,24.4881875 L15.0840375,22.4888125 C19.0731625,23.7260625 20.8660375,26.0203125 21.6675375,27.7265625 C22.5530375,29.6121875 22.4524125,31.2265625 22.4471625,31.2948125 L22.3894125,32.1243125 L21.5686625,32.2555625 C16.2504125,33.1060625 11.0406625,30.0488125 9.1804125,24.9860625 C8.6370375,23.5081875 8.4086625,21.9716875 8.5022875,20.4194375 L8.5364125,19.8489375 L9.0351625,19.5689375 C9.5382875,19.2871875 10.0799125,19.0378125 10.6451625,18.8295625 C13.4810375,17.7865625 16.5522875,17.9116875 19.2927875,19.1786875 C22.0350375,20.4474375 24.1184125,22.7066875 25.1596625,25.5425625 C25.7144125,27.0501875 25.9165375,28.5639375 25.7756625,30.1704375 C25.7144125,30.9211875 25.5717875,31.6955625 25.3416625,32.5311875 C24.7029125,34.8271875 24.3144125,36.7513125 24.4955375,38.6868125 C25.1334125,45.5118125 31.2015375,50.5421875 38.0274125,49.9069375 C41.3340375,49.5971875 44.3212875,48.0195625 46.4405375,45.4636875 C48.5589125,42.9078125 49.5555375,39.6790625 49.2466625,36.3724375 C48.9377875,33.0666875 47.3592875,30.0794375 44.8034125,27.9593125 C42.2466625,25.8400625 39.0179125,24.8434375 35.7121625,25.1523125 C33.8370375,25.3273125 32.0756625,25.9039375 30.4770375,26.8646875 L29.3990375,25.0700625 C31.2689125,23.9465625 33.3269125,23.2728125 35.5170375,23.0680625 C39.3810375,22.7058125 43.1522875,23.8713125 46.1395375,26.3475625 C49.1267875,28.8238125 50.9704125,32.3150625 51.3309125,36.1773125 C51.6922875,40.0404375 50.5285375,43.8125625 48.0522875,46.7998125 C45.5769125,49.7861875 42.0856625,51.6298125 38.2216625,51.9911875 C37.7649125,52.0340625 37.3099125,52.0550625 36.8592875,52.0550625" id="Fill-21" fill="#FFFFFF"></path>
                </g>
            </g>
        </g>
    </g>
</svg>